<?xml version="1.0" encoding="UTF-8"?>
<svg width="76px" height="80px" viewBox="0 0 76 80" version="1.1" xmlns="http://www.w3.org/2000/svg" xmlns:xlink="http://www.w3.org/1999/xlink">
    <!-- Generator: Sketch 63.1 (92452) - https://sketch.com -->
    <title>Combined Shape</title>
    <desc>Created with Sketch.</desc>
    <g id="Symbols" stroke="none" stroke-width="1" fill="none" fill-rule="evenodd">
        <g id="Icons/Graphical/approved" transform="translate(-2.000000, 0.000000)" fill="#006DAE" fill-rule="nonzero">
            <path d="M48.9877266,0 C50.0705469,0.00359489278 51.1054879,0.463283598 51.8729116,1.27424958 L52.0331849,1.4533665 L63.5145625,13.7670142 C64.2345471,14.5328668 64.6607104,15.5571063 64.7152583,16.6378141 L64.7212142,16.8881187 L64.7222386,30.9197491 C72.3845484,34.3597914 77.7209473,42.0567044 77.7209473,51 C77.7209473,59.9432956 72.3845484,67.6402086 64.7222386,71.0802509 L64.7212142,80 L2,80 L2,0 L48.9877266,0 Z M48.9944943,2.56337516 L4.36474609,2.56337516 L4.36474609,77.7141113 L62.3149903,77.7141113 L62.3157425,71.994469 C60.2337645,72.6478088 58.0184852,73 55.7209473,73 C43.5706828,73 33.7209473,63.1502645 33.7209473,51 C33.7209473,38.8497355 43.5706828,29 55.7209473,29 C58.0181181,29 60.2330566,29.3520787 62.3147446,30.0052179 L62.3149903,16.855418 C62.3097391,15.9072305 61.6325077,15.1304424 60.7686841,15.0462412 L60.6230691,15.0387099 L50.6948751,15.0387099 L50.6948751,4.38008329 C50.6904522,3.42551594 50.0043992,2.64504747 49.1334729,2.56938704 L48.9944943,2.56337516 Z M55.7209473,32 C45.227537,32 36.7209473,40.5065898 36.7209473,51 C36.7209473,61.4934102 45.227537,70 55.7209473,70 C66.2143575,70 74.7209473,61.4934102 74.7209473,51 C74.7209473,40.5065898 66.2143575,32 55.7209473,32 Z M66.3083996,42 L68.7209473,43.9412328 L51.2193312,61 L43.7209473,55.2141177 L45.7744335,52.9237587 L51.2193312,56.820331 L66.3083996,42 Z M30.863996,37.8503077 L30.863996,39.9030769 L8.86399605,39.9030769 L8.86399605,37.8503077 L30.863996,37.8503077 Z M36.863996,32.8503077 L36.863996,34.9030769 L8.86399605,34.9030769 L8.86399605,32.8503077 L36.863996,32.8503077 Z M36.863996,28 L36.863996,30.0527692 L8.86399605,30.0527692 L8.86399605,28 L36.863996,28 Z M15.6848985,7.59230769 C18.0325814,7.59230769 19.9393375,9.55876923 19.9393375,11.9889231 C19.9393375,12.9484615 19.6481912,13.82 19.1399473,14.5578462 C20.6024107,14.8150769 22.3577034,15.9438462 22.3577034,19.7769231 L22.3577034,24.8233846 L9.03228873,24.8233846 L9.03228873,19.7244615 C9.03228873,16.9016923 10.2423131,15.0198462 12.2500448,14.5730769 C11.716557,13.8183077 11.4304595,12.9146154 11.4321424,11.9889231 C11.4321424,9.56046154 13.3388985,7.59230769 15.6848985,7.59230769 Z M18.4073048,16.5248211 L13.1992156,16.5243077 C12.2298497,16.5243077 11.071996,17.0726154 11.071996,19.7244615 L11.071996,22.7706154 L20.296118,22.7706154 L20.296118,19.7752308 C20.296118,16.7000333 19.0492278,16.5338064 18.4073048,16.5248211 Z M15.6848985,9.64507692 C14.4614107,9.64507692 13.4735326,10.6892308 13.4735326,11.9889231 C13.4735326,13.2733846 14.4614107,14.3344615 15.6848985,14.3344615 C16.9100692,14.3344615 17.8962643,13.2903077 17.8962643,11.9889231 C17.8962643,10.6892308 16.9100692,9.64507692 15.6848985,9.64507692 Z M53.0940195,6.21314179 L53.0940195,12.4717013 L58.9142286,12.4717013 L53.0940195,6.21314179 Z" id="Combined-Shape"></path>
        </g>
    </g>
</svg>