<?xml version="1.0" encoding="UTF-8"?>
<svg width="80px" height="79px" viewBox="0 0 80 79" version="1.1" xmlns="http://www.w3.org/2000/svg" xmlns:xlink="http://www.w3.org/1999/xlink">
    <!-- Generator: Sketch 62 (91390) - https://sketch.com -->
    <title>Icons/Graphical/documents</title>
    <desc>Created with Sketch.</desc>
    <g id="Page-1" stroke="none" stroke-width="1" fill="none" fill-rule="evenodd">
        <g id="Icons/Graphical/documents" fill="#006DAE" fill-rule="nonzero">
            <path d="M48.9175909,0 L48.9175909,10.3559246 L80,10.3559246 L80,79 L31.0824091,79 L31.0824091,68.6440754 L0,68.6440754 L0,0 L48.9175909,0 Z M76.8664888,13.3924113 L34.2028172,13.3924113 L34.2028172,75.9564311 L76.8664888,75.9564311 L76.8664888,13.3924113 Z M72,63 L72,66 L40,66 L40,63 L72,63 Z M45.7822079,3.03825724 L3.1185362,3.03825724 L3.1185362,65.5898832 L31.0730497,65.5898832 L31.0730497,58.1411955 L9.0635968,58.1411955 L9.0635968,55.1047088 L31.0730497,55.1047088 L31.0730497,47.656021 L9.0635968,47.656021 L9.0635968,44.6177637 L31.0730497,44.6177637 L31.0730497,37.1708465 L9.0635968,37.1708465 L9.0635968,34.1325893 L31.0730497,34.1325893 L31.0730497,26.8149219 L9.12536852,26.8149219 L9.12536852,23.7766646 L31.0730497,23.7766646 L31.0730497,16.0942648 L9.0635968,16.0942648 L9.0635968,13.0577781 L31.0730497,13.0577781 L31.0730497,10.3559246 L45.7822079,10.3559246 L45.7822079,3.03825724 Z M72,53 L72,56 L40,56 L40,53 L72,53 Z M72,43 L72,46 L40,46 L40,43 L72,43 Z M72,33 L72,36 L40,36 L40,33 L72,33 Z M72,23 L72,26 L40,26 L40,23 L72,23 Z" id="Combined-Shape"></path>
        </g>
    </g>
</svg>