<?xml version="1.0" encoding="UTF-8"?>
<svg width="80px" height="75px" viewBox="0 0 80 75" version="1.1" xmlns="http://www.w3.org/2000/svg" xmlns:xlink="http://www.w3.org/1999/xlink">
    <!-- Generator: Sketch 62 (91390) - https://sketch.com -->
    <title>Icons/Graphical/english</title>
    <desc>Created with Sketch.</desc>
    <g id="Page-1" stroke="none" stroke-width="1" fill="none" fill-rule="evenodd">
        <g id="Icons/Graphical/english" transform="translate(0.000000, -3.000000)" fill="#006DAE" fill-rule="nonzero">
            <path d="M72.096,3.71333333 L26.5733333,3.62 C22.2133333,3.62 18.6666667,7.16666667 18.6666667,11.5266667 L18.6666667,18.3586667 L7.90666667,18.3813333 C3.54666667,18.3813333 0,21.928 0,26.288 L0,54.476 C0,58.836 3.54666667,62.3813333 7.90666667,62.3813333 L16,62.3813333 L16,75.7146667 C16,76.2653333 16.3386667,76.76 16.8533333,76.9586667 C17.0093333,77.0186667 17.172,77.048 17.3333333,77.048 C17.7013333,77.048 18.0626667,76.8946667 18.32,76.612 L31.2586667,62.3786667 L53.4266667,62.288 C57.7866667,62.288 61.3333333,58.7413333 61.3333333,54.3826667 L61.3333333,54.232 L68.3466667,61.9466667 C68.604,62.2293333 68.9653333,62.3826667 69.3333333,62.3826667 C69.4946667,62.3826667 69.6573333,62.3533333 69.8133333,62.2933333 C70.328,62.0946667 70.6666667,61.6 70.6666667,61.0493333 L70.6666667,47.716 L72.0933333,47.716 C76.4533333,47.716 80,44.1693333 80,39.8106667 L80,11.62 C80,7.26133333 76.4546667,3.71466667 72.096,3.71333333 Z M58.6666667,54.3813333 C58.6666667,57.2706667 56.316,59.62 53.4213333,59.62 L30.6613333,59.7133333 C30.288,59.7146667 29.9306667,59.8733333 29.68,60.1493333 L18.6666667,72.2653333 L18.6666667,61.0466667 C18.6666667,60.3106667 18.0706667,59.7133333 17.3333333,59.7133333 L7.90666667,59.7133333 C5.01733333,59.7133333 2.66666667,57.3626667 2.66666667,54.4746667 L2.66666667,26.2866667 C2.66666667,23.3973333 5.01733333,21.0466667 7.90933333,21.0466667 L20,21.0213333 C20,21.0213333 20,21.0213333 20,21.0213333 C20.0013333,21.0213333 20.0013333,21.0213333 20.0026667,21.0213333 L53.4266667,20.952 C56.316,20.952 58.6666667,23.3026667 58.6666667,26.192 L58.6666667,50.78 L58.6666667,54.3813333 Z M26.5706667,6.28533333 L72.092,6.37866667 L72.0946667,6.37866667 C74.984,6.37866667 77.3346667,8.72933333 77.3346667,11.6186667 L77.3346667,39.808 L77.3333333,39.808 C77.3333333,42.6973333 74.9826667,45.0466667 72.0933333,45.0466667 L69.3333333,45.0466667 C68.596,45.0466667 68,45.644 68,46.38 L68,57.5986667 L61.3333333,50.2653333 L61.3333333,26.1933333 C61.3333333,21.8333333 57.7866667,18.2866667 53.424,18.2866667 L21.3333333,18.352 L21.3333333,11.5253333 C21.3333333,8.636 23.684,6.28533333 26.5706667,6.28533333 Z M27.470696,29 L27.470696,31.5981411 L14.0139194,31.5981411 L14.0139194,38.3340623 L26.6175824,38.3340623 L26.6175824,40.9141607 L14.0139194,40.9141607 L14.0139194,48.4018589 L28,48.4018589 L28,51 L11,51 L11,29 L27.470696,29 Z M35.9316447,29 L47.2630118,46.2728267 L47.2630118,29 L50,29 L50,51 L47.0683553,51 L35.7369882,33.7091307 L35.7369882,51 L33,51 L33,29 L35.9316447,29 Z" id="Shape"></path>
        </g>
    </g>
</svg>