<?xml version="1.0" encoding="UTF-8"?>
<svg width="68px" height="73px" viewBox="0 0 68 73" version="1.1" xmlns="http://www.w3.org/2000/svg" xmlns:xlink="http://www.w3.org/1999/xlink">
    <!-- Generator: Sketch 62 (91390) - https://sketch.com -->
    <title>Icons/Graphical/person</title>
    <desc>Created with Sketch.</desc>
    <g id="Page-1" stroke="none" stroke-width="1" fill="none" fill-rule="evenodd">
        <g id="Icons/Graphical/person" transform="translate(-6.000000, -4.000000)" fill="#006DAE" fill-rule="nonzero">
            <path d="M39.9991024,45 C55.2727533,44.9987413 68.6731529,54.2512834 72.7631141,67.6224896 C73.5757262,70.3173794 73.9916432,73.0982465 74,75.8924457 L74,75.8924457 L74,77 L6,77 L6,75.8924457 C6,58.8533999 21.2483434,45 39.9991024,45 Z M39.9847409,47.20695 C23.0937987,47.20695 9.08054595,59.527067 8.43966314,74.7881537 L8.43966314,74.7881537 L8.43966314,74.8028341 L71.5441802,74.8028341 C70.9003504,59.3907681 56.9589133,47.2002396 39.9847409,47.20695 Z M39.5,4 C50.2695526,4 59,12.7304474 59,23.5 C59,34.2695526 50.2695526,43 39.5,43 C28.7304474,43 20,34.2695526 20,23.5 C20,12.7304474 28.7304474,4 39.5,4 Z M39.5,6.28381413 C29.9969345,6.30740397 22.2980534,14.0070381 22.2804457,23.5101054 C22.2850959,33.0179556 29.9955148,40.7223433 39.5033658,40.7195543 C49.0112167,40.7167637 56.717113,33.0078526 56.7161837,23.5000013 C56.7152544,13.9921499 49.0078513,6.28474531 39.5,6.28381413 L39.5,6.28381413 Z" id="Combined-Shape"></path>
        </g>
    </g>
</svg>